<svg width="24" height="28" viewBox="0 0 24 28" fill="none" xmlns="http://www.w3.org/2000/svg">
<path d="M23.996 1.9889L23.9997 26.0108C23.9997 26.7261 23.4069 27.3332 22.6755 27.3332H1.32453C0.593267 27.3332 0 26.7412 0 26.0108V1.9889C0 1.27358 0.592907 0.666504 1.32429 0.666504H22.6715C23.4025 0.666504 23.9959 1.25857 23.996 1.9889ZM8 15.3332V9.99984C8 9.26346 8.59696 8.6665 9.33333 8.6665C10.0697 8.6665 10.6667 9.26346 10.6667 9.99984V15.3332C10.6667 16.0696 11.2636 16.6665 12 16.6665C12.7364 16.6665 13.3333 16.0696 13.3333 15.3332V9.99984C13.3333 7.7907 11.5425 5.99984 9.33333 5.99984C7.1242 5.99984 5.33333 7.7907 5.33333 9.99984V15.3332C5.33333 19.015 8.31811 21.9998 12 21.9998C15.6819 21.9998 18.6667 19.015 18.6667 15.3332V9.99984C18.6667 9.26346 18.0697 8.6665 17.3333 8.6665C16.597 8.6665 16 9.26346 16 9.99984V15.3332C16 17.5424 14.2092 19.3332 12 19.3332C9.7908 19.3332 8 17.5424 8 15.3332Z" fill="#FEB225"/>
</svg>
