<svg width="36" height="36" viewBox="0 0 36 36" fill="none" xmlns="http://www.w3.org/2000/svg">
<path fill-rule="evenodd" clip-rule="evenodd" d="M14.7897 31H21.2095C25.7176 31 27.9717 31 29.5909 29.9377C30.2919 29.4779 30.8938 28.887 31.3621 28.1987C32.4441 26.609 32.4441 24.3959 32.4441 19.9697C32.4441 15.5435 32.4441 13.3304 31.3621 11.7406C30.8938 11.0524 30.2919 10.4615 29.5909 10.0016C28.5505 9.31908 27.2479 9.07511 25.2536 8.9879C24.3019 8.9879 23.4826 8.27987 23.2959 7.36364C23.016 5.98928 21.7869 5 20.3594 5H15.6399C14.2124 5 12.9833 5.98928 12.7033 7.36364C12.5167 8.27987 11.6973 8.9879 10.7456 8.9879C8.75133 9.07511 7.44875 9.31908 6.40831 10.0016C5.70733 10.4615 5.10547 11.0524 4.6371 11.7406C3.55518 13.3304 3.55518 15.5435 3.55518 19.9697C3.55518 24.3959 3.55518 26.609 4.6371 28.1987C5.10547 28.887 5.70733 29.4779 6.40831 29.9377C8.02752 31 10.2816 31 14.7897 31ZM17.9996 14.0606C14.6757 14.0606 11.9811 16.7062 11.9811 19.9697C11.9811 23.2332 14.6757 25.8788 17.9996 25.8788C21.3236 25.8788 24.0181 23.2332 24.0181 19.9697C24.0181 16.7062 21.3236 14.0606 17.9996 14.0606ZM17.9996 16.4242C16.0053 16.4242 14.3885 18.0116 14.3885 19.9697C14.3885 21.9278 16.0053 23.5152 17.9996 23.5152C19.994 23.5152 21.6107 21.9278 21.6107 19.9697C21.6107 18.0116 19.994 16.4242 17.9996 16.4242ZM24.8206 15.2424C24.8206 14.5897 25.3595 14.0606 26.0243 14.0606H27.6293C28.294 14.0606 28.833 14.5897 28.833 15.2424C28.833 15.8951 28.294 16.4242 27.6293 16.4242H26.0243C25.3595 16.4242 24.8206 15.8951 24.8206 15.2424Z" fill="#4C484E"/>
</svg>
