<svg width="36" height="36" viewBox="0 0 36 36" fill="none" xmlns="http://www.w3.org/2000/svg">
<path fill-rule="evenodd" clip-rule="evenodd" d="M20.8885 32.4441H15.1107C9.66339 32.4441 6.93972 32.4441 5.24745 30.7518C3.55518 29.0595 3.55518 26.3358 3.55518 20.8885V15.1107C3.55518 9.66339 3.55518 6.93972 5.24745 5.24745C6.93972 3.55518 9.67773 3.55518 15.1538 3.55518C16.0291 3.55518 16.7305 3.55518 17.3207 3.57924C17.3013 3.6947 17.2911 3.81247 17.2907 3.93155L17.2774 8.02568C17.2773 9.61039 17.2772 11.0109 17.4289 12.1397C17.5934 13.3634 17.9712 14.5868 18.9697 15.5853C19.9682 16.5838 21.1916 16.9615 22.4152 17.126C23.5441 17.2778 24.9446 17.2777 26.5293 17.2776L26.6663 17.2776H32.3825C32.4441 18.0493 32.4441 18.9964 32.4441 20.2571V20.8885C32.4441 26.3358 32.4441 29.0595 30.7518 30.7518C29.0595 32.4441 26.3358 32.4441 20.8885 32.4441ZM8.24962 21.6107C8.24962 21.0124 8.73464 20.5274 9.33295 20.5274H20.8885C21.4868 20.5274 21.9718 21.0124 21.9718 21.6107C21.9718 22.209 21.4868 22.6941 20.8885 22.6941H9.33295C8.73464 22.6941 8.24962 22.209 8.24962 21.6107ZM8.24962 26.6663C8.24962 26.068 8.73464 25.583 9.33295 25.583H17.2774C17.8757 25.583 18.3607 26.068 18.3607 26.6663C18.3607 27.2646 17.8757 27.7496 17.2774 27.7496H9.33295C8.73464 27.7496 8.24962 27.2646 8.24962 26.6663Z" fill="#06CF9B"/>
<path d="M28.6188 11.6681L22.9005 6.52171C21.2714 5.05549 20.4568 4.32238 19.4574 3.93886L19.4441 7.88866C19.4441 11.2933 19.4441 12.9955 20.5017 14.0532C21.5594 15.1109 23.2617 15.1109 26.6663 15.1109H31.8375C31.3138 14.0937 30.3762 13.2498 28.6188 11.6681Z" fill="#06CF9B"/>
</svg>
