<svg width="36" height="36" viewBox="0 0 36 36" fill="none" xmlns="http://www.w3.org/2000/svg">
<path d="M16.2505 21.5001V35.5001H9.25049C7.8581 35.5001 6.52274 34.9469 5.53818 33.9624C4.55361 32.9778 4.00049 31.6424 4.00049 30.2501V23.2501C4.00049 22.7859 4.18486 22.3408 4.51305 22.0126C4.84124 21.6844 5.28636 21.5001 5.75049 21.5001H16.2505ZM30.2505 21.5001C30.7146 21.5001 31.1597 21.6844 31.4879 22.0126C31.8161 22.3408 32.0005 22.7859 32.0005 23.2501V30.2501C32.0005 31.6424 31.4474 32.9778 30.4628 33.9624C29.4782 34.9469 28.1429 35.5001 26.7505 35.5001H19.7505V21.5001H30.2505ZM25.8755 0.500051C26.9089 0.499837 27.9255 0.761092 28.8308 1.25949C29.7361 1.7579 30.5005 2.47724 31.053 3.35057C31.6054 4.22389 31.928 5.2228 31.9905 6.2543C32.0531 7.28581 31.8536 8.31637 31.4107 9.25005H32.0005C32.9287 9.25005 33.819 9.6188 34.4754 10.2752C35.1317 10.9316 35.5005 11.8218 35.5005 12.7501V14.5001C35.5005 15.4283 35.1317 16.3185 34.4754 16.9749C33.819 17.6313 32.9287 18.0001 32.0005 18.0001H19.7505V9.25005H16.2505V18.0001H4.00049C3.07223 18.0001 2.18199 17.6313 1.52561 16.9749C0.869237 16.3185 0.500488 15.4283 0.500488 14.5001V12.7501C0.500488 11.8218 0.869237 10.9316 1.52561 10.2752C2.18199 9.6188 3.07223 9.25005 4.00049 9.25005H4.59024C4.20075 8.42984 3.99927 7.53304 4.00049 6.62505C4.00049 3.2423 6.74274 0.500051 10.0957 0.500051C13.167 0.447551 15.8917 2.41105 17.7625 5.63455L18.0005 6.0598C19.8082 2.7103 22.4805 0.610301 25.5097 0.503551L25.8755 0.500051ZM10.1255 4.00005C9.42929 4.00005 8.76162 4.27661 8.26933 4.7689C7.77705 5.26118 7.50049 5.92886 7.50049 6.62505C7.50049 7.32124 7.77705 7.98892 8.26933 8.48121C8.76162 8.97349 9.42929 9.25005 10.1255 9.25005H15.6257C14.329 5.9163 12.215 3.96505 10.1255 4.00005ZM25.8457 4.00005C23.7807 3.96505 21.672 5.91805 20.3752 9.25005H25.8755C26.5717 9.24611 27.2378 8.96576 27.7273 8.47069C28.2168 7.97562 28.4896 7.30637 28.4856 6.61018C28.4817 5.91398 28.2013 5.24787 27.7063 4.75838C27.2112 4.26888 26.5419 3.99611 25.8457 4.00005Z" fill="white"/>
</svg>
