<svg width="20" height="20" viewBox="0 0 20 20" fill="none" xmlns="http://www.w3.org/2000/svg">
<circle cx="10" cy="10" r="9.73684" fill="#D22286" stroke="white" stroke-width="0.526316"/>
<path d="M10.1972 14.3203C9.73317 14.3203 9.29717 14.2403 8.88917 14.0803C8.48117 13.9123 8.12517 13.6763 7.82117 13.3723C7.52517 13.0603 7.30917 12.6963 7.17317 12.2803L8.13317 11.8723C8.30117 12.3123 8.57317 12.6563 8.94917 12.9043C9.33317 13.1443 9.74917 13.2643 10.1972 13.2643C10.5652 13.2643 10.8892 13.1843 11.1692 13.0243C11.4572 12.8563 11.6812 12.6283 11.8412 12.3403C12.0012 12.0443 12.0812 11.7163 12.0812 11.3563C12.0812 10.9803 11.9972 10.6483 11.8292 10.3603C11.6692 10.0723 11.4492 9.84827 11.1692 9.68827C10.8892 9.52027 10.5692 9.43627 10.2092 9.43627C9.84117 9.43627 9.50517 9.52027 9.20117 9.68827C8.89717 9.85627 8.67717 10.0683 8.54117 10.3243L7.59317 10.1203L8.27717 5.23627H12.9092V6.25627H8.72117L9.17717 5.80027L8.64917 9.59227L8.24117 9.35227C8.50517 9.01627 8.81317 8.77627 9.16517 8.63227C9.52517 8.48027 9.91317 8.40427 10.3292 8.40427C10.9132 8.40427 11.4252 8.53627 11.8652 8.80027C12.3052 9.06427 12.6492 9.41627 12.8972 9.85627C13.1452 10.2963 13.2692 10.7963 13.2692 11.3563C13.2692 11.9163 13.1332 12.4203 12.8612 12.8683C12.5972 13.3163 12.2332 13.6723 11.7692 13.9363C11.3132 14.1923 10.7892 14.3203 10.1972 14.3203Z" fill="white"/>
</svg>
