<svg width="37" height="46" viewBox="0 0 37 46" fill="none" xmlns="http://www.w3.org/2000/svg">
<path d="M0.143862 40.2561C0.240721 40.159 0.371949 40.1121 0.543796 40.1121C0.712518 40.1121 0.843749 40.159 0.937484 40.2561C1.03122 40.3531 1.07808 40.4815 1.07808 40.6412C1.07808 40.8008 1.03122 40.9323 0.937484 41.0262C0.843749 41.1233 0.712518 41.1702 0.543796 41.1702C0.375073 41.1702 0.240721 41.1233 0.143862 41.0262C0.0470026 40.9292 0.000138011 40.8008 0.000138011 40.6412C-0.00298648 40.4815 0.0470026 40.3531 0.143862 40.2561ZM0.937484 45.4218H0.134489V41.6649H0.937484V45.4218Z" fill="white"/>
<path d="M7.49198 45.4218H6.59526L6.20782 44.2666H4.29876L3.91132 45.4218H3.0146L4.6612 40.7257H5.85475L7.49198 45.4218ZM5.23298 41.4614L4.53622 43.5277H5.96411L5.26735 41.4614H5.23298Z" fill="white"/>
<path d="M10.9044 40.6443C11.32 40.6443 11.6824 40.7351 11.9917 40.9198C12.3011 41.1014 12.526 41.308 12.6635 41.5397L12.2355 42.2817H12.1948C12.0667 42.0437 11.8886 41.8434 11.6637 41.6774C11.4387 41.5146 11.1919 41.4301 10.9232 41.4301C10.7013 41.4301 10.5264 41.4833 10.4014 41.5866C10.2764 41.69 10.2139 41.8214 10.2139 41.9748C10.2139 42.147 10.2889 42.2817 10.442 42.3756C10.5951 42.4695 10.8701 42.5697 11.2637 42.6761C11.5137 42.7575 11.723 42.8264 11.8855 42.8796C12.0511 42.9328 12.2167 43.0142 12.3854 43.1238C12.5542 43.2334 12.6791 43.3711 12.7604 43.5402C12.8416 43.7093 12.8822 43.9065 12.8822 44.135C12.8822 44.5733 12.7291 44.9083 12.4198 45.1463C12.1136 45.3842 11.7012 45.5 11.1888 45.5C10.7295 45.5 10.3264 45.4061 9.97958 45.2183C9.63276 45.0304 9.3828 44.8269 9.22658 44.6078L9.62963 43.7938H9.67025C9.82648 44.0442 10.0358 44.2634 10.3014 44.445C10.5639 44.6266 10.8607 44.7174 11.1856 44.7174C11.7449 44.7174 12.0261 44.5264 12.0261 44.1476C12.0261 44.0067 11.973 43.8846 11.8636 43.7875C11.7543 43.6905 11.6418 43.6247 11.5293 43.5903C11.4137 43.5559 11.2106 43.4964 10.92 43.4118C10.9076 43.4087 10.8951 43.4056 10.8857 43.4025C10.8763 43.3993 10.8638 43.3962 10.8544 43.3899C10.3545 43.2553 9.97958 43.0894 9.72962 42.8828C9.47966 42.6793 9.35468 42.3818 9.35468 41.9905C9.35468 41.6117 9.49528 41.2923 9.77961 41.0356C10.0702 40.7726 10.442 40.6443 10.9044 40.6443Z" fill="white"/>
<path d="M17.1003 40.6443C17.5377 40.6443 17.9033 40.7539 18.2001 40.973C18.4969 41.1922 18.7156 41.4426 18.8531 41.7244L18.2563 42.3443H18.2157C17.9626 41.7306 17.5877 41.427 17.0972 41.427C16.7097 41.427 16.3973 41.5866 16.1598 41.9091C15.9224 42.2316 15.8036 42.6198 15.8036 43.08C15.8036 43.5527 15.913 43.9441 16.1348 44.2509C16.3567 44.5608 16.6691 44.7142 17.0753 44.7142C17.3752 44.7142 17.6283 44.614 17.8377 44.4105C18.047 44.207 18.1939 43.9315 18.2782 43.5809H18.3188L19.0218 44.1413C18.8875 44.5452 18.65 44.8708 18.3063 45.1212C17.9626 45.3717 17.5502 45.5 17.0659 45.5C16.7128 45.5 16.3973 45.4343 16.1223 45.3028C15.8442 45.1713 15.6224 44.9929 15.4568 44.7643C15.2881 44.5358 15.1631 44.2822 15.0756 44.0004C14.9881 43.7187 14.9444 43.415 14.9444 43.0956C14.9444 42.4257 15.1444 41.8496 15.5474 41.3675C15.9567 40.8854 16.4723 40.6443 17.1003 40.6443Z" fill="white"/>
<path d="M24.159 41.5083H22.0281V42.6886H24.159V43.4275H22.0281V44.6359H24.159V45.4217H21.172V40.7225H24.159V41.5083Z" fill="white"/>
<path d="M30.5445 45.4217H29.2322L27.4731 41.5146H27.4575V45.4217H26.6014V40.7225H27.9137L29.6759 44.6203H29.6884V40.7225H30.5445V45.4217Z" fill="white"/>
<path d="M33.1572 40.7225H34.8351C36.2786 40.7225 37.0003 41.5052 37.0003 43.0706C37.0003 44.6359 36.2661 45.4186 34.8007 45.4186H33.1572V40.7225ZM34.0133 41.5083V44.6359H34.8976C35.3131 44.6359 35.6256 44.5013 35.8318 44.2289C36.038 43.9566 36.1442 43.5684 36.1442 43.0612C36.1442 42.0249 35.7318 41.5083 34.9132 41.5083H34.0133Z" fill="white"/>
<path d="M35.3091 15.8333C35.4965 15.5797 35.5403 15.2071 35.6028 14.8784C35.7559 14.0644 35.884 13.2473 36.0183 12.4396C35.9871 12.4552 35.8902 12.5022 35.7996 12.5617C34.6654 13.2911 33.5812 14.0801 32.8063 15.2134C32.0877 16.2653 31.8534 17.4362 31.9721 18.7636C32.1252 18.4443 32.2471 18.1876 32.3689 17.934C32.5564 18.5476 32.497 19.1832 32.8563 19.6747C32.9344 19.3553 32.9469 18.9922 33.1032 18.7104C33.3625 18.2502 33.6749 18.2784 33.9437 18.7355C34.1905 19.1581 34.1874 19.5839 33.9187 19.9909C33.6531 20.3916 33.2469 20.5669 32.8001 20.4261C32.3595 20.2883 31.919 20.0879 31.544 19.8218C30.9129 19.371 30.2942 18.8857 29.7412 18.341C28.5883 17.2108 27.201 16.7287 25.6356 16.8289C24.0734 16.929 22.5174 17.1545 20.9583 17.3141C19.4117 17.4738 17.8588 17.5834 16.3215 17.7963C15.9529 17.8463 15.6029 17.7806 15.2436 17.8119C14.9561 17.837 14.6562 17.6428 14.3562 17.6366C13.8251 17.6209 13.3502 17.3955 12.8565 17.264C12.5222 17.1732 12.2097 16.9948 11.8848 16.8664C11.7754 16.8226 11.6536 16.8132 11.538 16.7882C11.5223 16.8195 11.5036 16.8539 11.488 16.8852C11.6629 17.0574 11.8285 17.2421 12.016 17.4049C13.4283 18.6353 15.0436 19.396 16.9433 19.4086C17.7932 19.4148 18.6462 19.299 19.496 19.274C20.399 19.2489 21.3114 19.2207 22.2456 19.6434C20.8833 20.689 19.4335 20.9614 17.7776 20.6671C17.99 20.8831 18.1775 21.1305 18.4181 21.3089C19.5929 22.1636 20.9489 22.3921 22.3518 22.3389C23.0829 22.3108 23.8078 22.1636 24.5827 22.0634C23.9797 22.6426 23.2329 22.8054 22.4049 22.9619C22.5487 23.1279 22.6486 23.2781 22.7799 23.3877C23.8109 24.2549 25.0264 24.4021 26.273 24.1172C27.201 23.9043 28.0915 23.5161 29.0007 23.203C28.5227 24.3175 27.4603 24.7715 26.323 25.2661C27.7853 25.8391 29.1163 25.6074 30.4848 24.9719C30.2974 25.8954 29.9287 26.675 29.435 27.3982C27.3822 30.4005 23.3267 31.8939 19.6429 31.011C19.3086 30.9296 18.9805 30.8326 18.5431 30.7136C19.8366 31.7812 21.2332 32.3572 22.7767 32.6171C20.3615 33.0366 17.9557 33.2432 15.5467 32.664C12.8596 32.016 10.9193 30.4005 9.66014 27.9742C9.18522 27.0601 8.85715 26.0707 8.46659 25.1127C8.41347 24.9813 8.3791 24.8435 8.31036 24.6337C8.01979 25.2161 7.97604 25.7577 8.01354 26.3055C8.10415 27.6518 8.64469 28.8508 9.25396 30.0248C9.34769 30.2033 9.44455 30.3786 9.54141 30.5539C9.51954 30.5821 9.49454 30.6103 9.47267 30.6353C8.9915 30.269 8.48221 29.9309 8.03541 29.5271C6.24821 27.9116 5.14526 25.8735 4.50161 23.5756C3.73612 20.8393 3.71425 18.1031 4.66097 15.4012C4.9078 14.6968 5.26399 14.03 5.58581 13.3131C4.05169 14.2084 3.27057 15.6486 2.61755 17.2045C2.41446 14.3963 2.97687 11.7915 4.62972 9.48106C6.29195 7.15807 8.63531 5.85882 11.3317 5.0824C10.7287 4.79124 10.1038 4.7662 9.48517 4.88203C9.23521 4.92899 8.9915 4.98848 8.74779 5.05422C10.1976 3.98038 11.8379 3.11318 13.647 2.5246C14.0813 2.38372 14.5187 2.26475 14.953 2.15831C19.5304 1.27544 22.633 3.37616 22.633 3.37616C22.4643 2.64044 21.88 2.14891 21.4145 1.86715C26.7042 2.6467 31.4597 5.89325 34.0499 10.7803C31.5222 4.97908 26.0512 1.18778 20.0053 0.6086C18.4774 0.427018 16.5621 0.427018 14.475 0.971763C14.1844 1.04377 13.8938 1.12204 13.6095 1.2097C13.4564 1.25666 13.3033 1.30362 13.1533 1.35371C13.1346 1.35997 13.1127 1.36623 13.094 1.3725C13.0877 1.37563 13.0783 1.37876 13.0721 1.38189C11.6754 1.82958 10.2569 2.38372 9.004 3.23214C5.942 5.30155 3.67363 8.04093 2.26136 11.4691C-1.15995 19.7686 2.51132 29.5208 10.5506 33.4561C13.6126 34.9557 16.8652 35.3565 20.2365 35.0309C26.0949 34.4673 30.4848 31.5714 33.5906 26.6343C34.4561 25.2599 35.0497 23.7665 35.4871 22.2043C35.8965 20.7454 35.7715 19.3178 35.2216 17.9371C34.9247 17.1889 34.7966 16.5346 35.3091 15.8333Z" fill="white"/>
</svg>
