<svg width="36" height="36" viewBox="0 0 36 36" fill="none" xmlns="http://www.w3.org/2000/svg">
<path d="M26.6666 12.2222C26.6666 13.8177 25.3732 15.1111 23.7777 15.1111C22.1822 15.1111 20.8888 13.8177 20.8888 12.2222C20.8888 10.6267 22.1822 9.33328 23.7777 9.33328C25.3732 9.33328 26.6666 10.6267 26.6666 12.2222Z" fill="#52A6FE"/>
<path fill-rule="evenodd" clip-rule="evenodd" d="M17.9171 2.47217H18.0828C21.4172 2.47215 24.0302 2.47214 26.069 2.74625C28.1559 3.02682 29.8026 3.61231 31.0951 4.90481C32.3876 6.19731 32.9731 7.84401 33.2536 9.93085C33.5278 11.9697 33.5277 14.5827 33.5277 17.9171V18.0446C33.5277 20.8017 33.5277 23.0588 33.378 24.8965C33.2275 26.7433 32.9192 28.2864 32.229 29.5681C31.9246 30.1334 31.5505 30.6396 31.0951 31.0951C29.8026 32.3876 28.1559 32.9731 26.069 33.2536C24.0302 33.5278 21.4172 33.5277 18.0828 33.5277H17.9171C14.5827 33.5277 11.9697 33.5278 9.93085 33.2536C7.84401 32.9731 6.19731 32.3876 4.90481 31.0951C3.75896 29.9492 3.16723 28.5231 2.85256 26.7539C2.54345 25.016 2.4869 22.8537 2.47516 20.1687C2.47217 19.4858 2.47217 18.7635 2.47217 18.0014V17.9171C2.47215 14.5827 2.47214 11.9697 2.74625 9.93085C3.02682 7.84401 3.61231 6.19731 4.90481 4.90481C6.19731 3.61231 7.84401 3.02682 9.93085 2.74625C11.9697 2.47214 14.5827 2.47215 17.9171 2.47217ZM10.2196 4.89359C8.37297 5.14186 7.25971 5.61404 6.43687 6.43687C5.61404 7.25971 5.14186 8.37297 4.89359 10.2196C4.64114 12.0973 4.63884 14.5647 4.63884 17.9999C4.63884 18.4196 4.63884 18.8254 4.63933 19.2183L6.08541 17.953C7.40169 16.8013 9.38552 16.8673 10.6223 18.1041L16.8185 24.3004C17.8112 25.293 19.3738 25.4284 20.5224 24.6212L20.9531 24.3185C22.6059 23.1569 24.842 23.2915 26.3436 24.6429L30.432 28.3224C30.8436 27.4582 31.0879 26.3226 31.2185 24.7205C31.3602 22.9808 31.3611 20.8106 31.3611 17.9999C31.3611 14.5647 31.3588 12.0973 31.1063 10.2196C30.858 8.37297 30.3859 7.25971 29.563 6.43687C28.7402 5.61404 27.6269 5.14186 25.7803 4.89359C23.9026 4.64114 21.4352 4.63884 17.9999 4.63884C14.5647 4.63884 12.0973 4.64114 10.2196 4.89359Z" fill="#52A6FE"/>
</svg>
