<svg width="26" height="27" viewBox="0 0 26 27" fill="none" xmlns="http://www.w3.org/2000/svg">
<path d="M25.75 19.8449V24.8544C25.75 25.5981 25.175 26.2152 24.4332 26.2677C23.8136 26.3114 23.3081 26.3333 22.9167 26.3333C10.3981 26.3333 0.25 16.1851 0.25 3.66659C0.25 3.27517 0.271888 2.76965 0.315663 2.15004C0.368108 1.40825 0.985165 0.833252 1.7288 0.833252H6.73847C7.10211 0.833252 7.40666 1.10868 7.44317 1.47047C7.47595 1.79527 7.50642 2.05603 7.5346 2.25278C7.82116 4.25411 8.4065 6.15901 9.24399 7.92088C9.37842 8.20367 9.29076 8.54217 9.03595 8.72417L5.97836 10.9083C7.83982 15.2565 11.3268 18.7435 15.6749 20.605L17.8551 17.5526C18.0394 17.2948 18.3819 17.2061 18.6681 17.342C20.4298 18.1788 22.3346 18.7634 24.3356 19.0493C24.5311 19.0774 24.7902 19.1075 25.1128 19.1401C25.4746 19.1767 25.75 19.4813 25.75 19.8449Z" fill="#18151A"/>
</svg>
