<svg width="26" height="26" viewBox="0 0 26 26" fill="none" xmlns="http://www.w3.org/2000/svg">
<path d="M25.4419 0.558216C25.2985 0.415494 25.1174 0.316678 24.9198 0.273388C24.7221 0.230097 24.5162 0.244132 24.3263 0.313841L0.951312 8.81384C0.749722 8.8903 0.576164 9.02629 0.453691 9.20373C0.331218 9.38117 0.265625 9.59167 0.265625 9.80728C0.265625 10.0229 0.331218 10.2334 0.453691 10.4108C0.576164 10.5883 0.749722 10.7243 0.951312 10.8007L10.0782 14.4451L16.8144 7.68759L18.3126 9.18572L11.5444 15.9538L15.1994 25.0807C15.2782 25.2784 15.4145 25.4479 15.5906 25.5673C15.7668 25.6866 15.9748 25.7503 16.1876 25.7501C16.4023 25.7457 16.6106 25.6763 16.7851 25.5511C16.9596 25.4259 17.0921 25.2508 17.1651 25.0488L25.6651 1.67384C25.7375 1.48586 25.7549 1.28117 25.7154 1.08365C25.6759 0.886121 25.5811 0.703895 25.4419 0.558216Z" fill="#D22286" fill-opacity="0.2"/>
</svg>
